<svg width="1916" height="1916" viewBox="0 0 1916 1916" fill="none" xmlns="http://www.w3.org/2000/svg">
<path fill-rule="evenodd" clip-rule="evenodd" d="M1673.39 100C1589.81 247.595 1460.79 385.317 1289.94 504.422C989.124 714.128 571.701 854.636 100 872.149V100H1673.39ZM0 874V1074V1916H1916V55.1595V0H1722.43H0V874ZM1816 1816V291.478L1261.12 1816H1816ZM1207.91 1816L1737.74 360.303C1645.35 476.37 1529.73 582.207 1395.26 674.763L979.881 1816H1207.91ZM926.672 1816L1325.36 720.614C1238.49 774.913 1144.73 823.955 1045.09 867.023L699.692 1816H926.672ZM646.483 1816L982.423 893.014C899.486 925.987 812.81 954.913 722.948 979.408L418.454 1816H646.483ZM365.245 1816L664.181 994.681C584.5 1014.39 502.481 1030.65 418.49 1043.21L137.216 1816H365.245ZM100 1772.06L362.445 1051C285.447 1060.9 206.893 1067.7 127.059 1071.21L100 1145.56V1772.06Z" fill="#343131"/>
</svg>
